<svg version="1.1" xmlns="http://www.w3.org/2000/svg" viewBox="0 0 1198 149.58333333333337" width="3594" height="448.7500000000001">
  <!-- svg-source:excalidraw -->
  
  <defs>
    <style class="style-fonts">
      @font-face {
        font-family: "Virgil";
        src: url("https://excalidraw.com/Virgil.woff2");
      }
      @font-face {
        font-family: "Cascadia";
        src: url("https://excalidraw.com/Cascadia.woff2");
      }
    </style>
    
  </defs>
  <g stroke-linecap="round" transform="translate(10 10.583333333333371) rotate(0 406.5 18)"><path d="M0.86 4.72 C0.86 4.72, 0.86 4.72, 0.86 4.72 M0.86 4.72 C0.86 4.72, 0.86 4.72, 0.86 4.72 M0.6 11.12 C1.96 9.52, 4.61 1.72, 9.78 0.55 M0.6 11.12 C1.78 7.35, 4.95 6.27, 9.78 0.55 M0.34 17.52 C3.62 8.22, 9.2 3.26, 14.77 0.91 M0.34 17.52 C4.92 13.06, 8.97 10.98, 14.77 0.91 M0.07 23.91 C7.7 18.24, 14.05 10.44, 20.41 0.52 M0.07 23.91 C8.9 13.29, 13.96 7.61, 20.41 0.52 M1.78 28.05 C6.02 18.07, 12.71 9.65, 25.4 0.88 M1.78 28.05 C7.73 19.08, 16.17 13.57, 25.4 0.88 M2.83 32.94 C13.66 19.67, 20.53 6.13, 31.04 0.48 M2.83 32.94 C11.88 22.22, 20.27 12.8, 31.04 0.48 M5.19 36.32 C11.53 22.68, 26.72 16.24, 36.03 0.84 M5.19 36.32 C13.99 25.46, 24.79 11.37, 36.03 0.84 M10.18 36.68 C16.57 28.6, 25.33 13.74, 41.67 0.45 M10.18 36.68 C19.26 27.96, 30.94 14.1, 41.67 0.45 M15.17 37.04 C25.09 25.09, 37.78 12.86, 46.66 0.81 M15.17 37.04 C23.87 23.51, 34.16 13.6, 46.66 0.81 M20.81 36.64 C36.28 26.27, 43.35 9.7, 52.3 0.42 M20.81 36.64 C32.5 23.16, 41.42 14.25, 52.3 0.42 M25.8 37 C30.06 31.69, 38.69 19.98, 57.29 0.78 M25.8 37 C36.99 22.19, 47.79 8.56, 57.29 0.78 M31.44 36.61 C39.35 24.01, 52.2 10.63, 62.93 0.38 M31.44 36.61 C40.53 22.65, 53.49 11.65, 62.93 0.38 M36.43 36.97 C46.54 20.28, 61.92 8.65, 67.92 0.74 M36.43 36.97 C42.3 26.14, 52.86 20.15, 67.92 0.74 M42.07 36.57 C56.46 26.75, 62.99 7.68, 73.56 0.35 M42.07 36.57 C49.41 25.7, 54.87 20.34, 73.56 0.35 M47.06 36.93 C56.27 21.97, 72.51 12.36, 78.55 0.71 M47.06 36.93 C57.69 23.41, 67.63 14.36, 78.55 0.71 M52.7 36.54 C62.8 18.59, 75.81 8.14, 84.19 0.31 M52.7 36.54 C63.58 22.52, 74.91 8.51, 84.19 0.31 M57.69 36.9 C70.08 21.95, 75.01 13.16, 89.18 0.67 M57.69 36.9 C65.88 28.82, 74.2 20.81, 89.18 0.67 M63.33 36.5 C72.91 27.35, 80.07 17.02, 94.82 0.28 M63.33 36.5 C70.27 26.02, 78.42 18.05, 94.82 0.28 M68.32 36.86 C76.67 26.96, 81.92 17.76, 99.81 0.64 M68.32 36.86 C74.11 26.58, 81.54 20.99, 99.81 0.64 M73.31 37.22 C85.6 25.05, 95.11 15.52, 104.8 1 M73.31 37.22 C82.76 28.37, 90.42 19.53, 104.8 1 M78.95 36.83 C93.59 25.34, 100.44 15.49, 110.44 0.6 M78.95 36.83 C89.3 22.97, 100.24 13.57, 110.44 0.6 M83.94 37.19 C95.21 20.35, 106.92 5.24, 115.43 0.96 M83.94 37.19 C95.94 25.4, 104.51 15, 115.43 0.96 M89.58 36.79 C102.69 29.18, 109.81 13.8, 121.07 0.57 M89.58 36.79 C97.99 27.35, 107.33 19.01, 121.07 0.57 M94.57 37.15 C104.99 23.39, 111.45 11.74, 126.06 0.93 M94.57 37.15 C100.52 28.94, 108.74 20.11, 126.06 0.93 M100.21 36.76 C111.56 27.47, 119.16 14.75, 131.7 0.53 M100.21 36.76 C110.49 23.69, 122.78 14.48, 131.7 0.53 M105.2 37.12 C116.28 22.26, 129.29 10.02, 136.69 0.89 M105.2 37.12 C115.08 25.54, 127.84 13.59, 136.69 0.89 M110.84 36.73 C116.51 25.7, 124.4 16.05, 142.33 0.5 M110.84 36.73 C120.97 23.53, 130.92 14.69, 142.33 0.5 M115.83 37.09 C127.45 25.96, 136.3 8.24, 147.32 0.86 M115.83 37.09 C122.43 25.92, 132.21 16.96, 147.32 0.86 M121.47 36.69 C127.74 26.21, 134.87 20.49, 152.96 0.47 M121.47 36.69 C129.08 25.28, 138.4 14.59, 152.96 0.47 M126.46 37.05 C134.6 30.71, 142.27 20.54, 157.95 0.83 M126.46 37.05 C140.37 23.84, 150.28 7.79, 157.95 0.83 M132.1 36.66 C145.88 29.15, 153.01 17.3, 163.59 0.43 M132.1 36.66 C144.36 22.16, 154.93 7.39, 163.59 0.43 M137.09 37.02 C142.95 30.16, 149.55 25.69, 168.58 0.79 M137.09 37.02 C148.88 22.95, 160.45 9.02, 168.58 0.79 M142.73 36.62 C148.08 26.21, 160.71 18, 174.22 0.4 M142.73 36.62 C154.59 25.23, 162.37 11.26, 174.22 0.4 M147.72 36.98 C152.51 26.88, 156.61 19.94, 179.21 0.76 M147.72 36.98 C158.66 26.16, 166.28 14.34, 179.21 0.76 M153.36 36.59 C161.37 24.94, 166.69 23.3, 184.85 0.36 M153.36 36.59 C160.97 29.67, 169.73 21.45, 184.85 0.36 M158.35 36.95 C169.55 24.68, 183.6 7.96, 189.84 0.72 M158.35 36.95 C166.94 27.07, 176.55 13.81, 189.84 0.72 M163.99 36.55 C176.39 21.69, 182.85 15, 195.48 0.33 M163.99 36.55 C172.94 23.71, 184.82 14.88, 195.48 0.33 M168.98 36.91 C177.2 23.76, 190.54 14.59, 200.47 0.69 M168.98 36.91 C177.34 25.52, 185.97 16.98, 200.47 0.69 M174.62 36.52 C184.49 21.87, 197.54 10.29, 206.11 0.29 M174.62 36.52 C188.18 25.71, 196.21 12.55, 206.11 0.29 M179.61 36.88 C193.9 19.8, 207.12 5.62, 211.1 0.65 M179.61 36.88 C189.68 26.8, 200.72 14.09, 211.1 0.65 M184.59 37.24 C197.4 27.73, 201.53 16, 216.74 0.26 M184.59 37.24 C191.76 30.4, 198.55 20.27, 216.74 0.26 M190.24 36.84 C197.01 23.89, 210.66 9.3, 221.73 0.62 M190.24 36.84 C201.36 23.39, 209.81 11.04, 221.73 0.62 M195.22 37.2 C206.1 28.72, 206.71 23.7, 226.71 0.98 M195.22 37.2 C204.8 24.85, 213.99 14.58, 226.71 0.98 M200.87 36.81 C210.64 30.6, 214.94 21.27, 232.36 0.58 M200.87 36.81 C210.55 26.8, 216.01 15.18, 232.36 0.58 M205.85 37.17 C213.96 22.57, 222.1 16.07, 237.35 0.94 M205.85 37.17 C216.86 26.13, 227.34 10.64, 237.35 0.94 M211.5 36.78 C226.97 26.4, 239.75 7.15, 242.99 0.55 M211.5 36.78 C221.01 25.95, 231.79 14.08, 242.99 0.55 M216.48 37.14 C224.82 28.4, 232.15 16.47, 247.98 0.91 M216.48 37.14 C225.86 29.11, 230.6 18.27, 247.98 0.91 M222.13 36.74 C234.55 27.98, 243.48 14.93, 253.62 0.51 M222.13 36.74 C234.12 23.72, 247.66 6.17, 253.62 0.51 M227.11 37.1 C235.02 27.22, 250.14 11.71, 258.61 0.87 M227.11 37.1 C237.59 26.85, 246.97 15.44, 258.61 0.87 M232.76 36.71 C240.91 24.7, 252.32 13.62, 264.25 0.48 M232.76 36.71 C241.34 27.75, 247.75 19.93, 264.25 0.48 M237.74 37.07 C250.71 24.58, 257.24 16.22, 269.24 0.84 M237.74 37.07 C250 26.21, 257.96 11.12, 269.24 0.84 M243.39 36.67 C254.05 25.14, 265.45 12.35, 274.88 0.45 M243.39 36.67 C254.17 26.12, 260.07 16.94, 274.88 0.45 M248.37 37.03 C254.85 30.87, 258.95 25.52, 279.87 0.81 M248.37 37.03 C261.36 26.16, 270.35 11.77, 279.87 0.81 M254.02 36.64 C268.23 25.54, 274.25 9.98, 285.51 0.41 M254.02 36.64 C263.27 27.11, 268.47 22.02, 285.51 0.41 M259 37 C268.56 21.77, 283.91 13.81, 290.5 0.77 M259 37 C267.53 27, 277.56 16.63, 290.5 0.77 M264.65 36.6 C274.78 26.85, 284.29 8.5, 296.14 0.38 M264.65 36.6 C275.61 26.48, 282.68 15.39, 296.14 0.38 M269.63 36.96 C282 21.55, 288.13 17.08, 301.13 0.74 M269.63 36.96 C278.44 28.65, 285.66 17.15, 301.13 0.74 M275.28 36.57 C282.83 31.7, 286.55 20.9, 306.77 0.34 M275.28 36.57 C287.34 22.73, 298.87 8.51, 306.77 0.34 M280.26 36.93 C290.32 23.79, 302.17 7.55, 311.76 0.7 M280.26 36.93 C288.13 25.34, 297.93 18.61, 311.76 0.7 M285.91 36.53 C295.88 28.7, 304.13 14.07, 317.4 0.31 M285.91 36.53 C296.9 23.51, 308.43 8.46, 317.4 0.31 M290.89 36.89 C303.26 28.87, 311.82 18.2, 322.39 0.67 M290.89 36.89 C299.87 25.15, 311.15 15.93, 322.39 0.67 M296.54 36.5 C311 26.84, 316.72 15.1, 328.03 0.27 M296.54 36.5 C305.96 25.76, 319.89 9.59, 328.03 0.27 M301.53 36.86 C316.87 20.52, 328.45 7.49, 333.02 0.63 M301.53 36.86 C314.21 21.74, 326.81 9.9, 333.02 0.63 M306.51 37.22 C320.69 19.83, 330.84 10.97, 338 0.99 M306.51 37.22 C317.79 24.33, 332.31 10.61, 338 0.99 M312.16 36.82 C325.79 23.74, 334.66 5.15, 343.65 0.6 M312.16 36.82 C324.86 23.12, 333.5 10.71, 343.65 0.6 M317.14 37.19 C322.66 28.59, 333.9 17.18, 348.63 0.96 M317.14 37.19 C325.4 30.31, 331.75 18.99, 348.63 0.96 M322.79 36.79 C325.32 30.64, 332.35 20.63, 354.28 0.56 M322.79 36.79 C332.02 23.89, 344.02 12.11, 354.28 0.56 M327.77 37.15 C335.42 28.19, 347.76 19.32, 359.26 0.92 M327.77 37.15 C339.85 24.49, 354.2 8.59, 359.26 0.92 M333.42 36.76 C339.35 26.62, 348.18 18.41, 364.91 0.53 M333.42 36.76 C344.78 25.5, 356.3 10.59, 364.91 0.53 M338.4 37.12 C346.94 24.7, 350.85 17.76, 369.89 0.89 M338.4 37.12 C349.75 25.89, 359.56 13.74, 369.89 0.89 M344.05 36.72 C356.08 28.42, 364.88 12.71, 375.54 0.5 M344.05 36.72 C355.21 23.95, 368.4 8.65, 375.54 0.5 M349.03 37.08 C356.32 27.83, 370.39 16.48, 380.52 0.86 M349.03 37.08 C356.85 27.25, 368.71 15.18, 380.52 0.86 M354.68 36.69 C365.2 20.56, 382.16 9.74, 386.17 0.46 M354.68 36.69 C367.19 23.38, 378.42 8.76, 386.17 0.46 M359.66 37.05 C363.5 30.23, 373.5 18.18, 391.15 0.82 M359.66 37.05 C364.44 29.74, 373.36 22.62, 391.15 0.82 M365.31 36.65 C379.82 25.92, 387.57 9.93, 396.8 0.43 M365.31 36.65 C376.44 23.23, 387.72 12.93, 396.8 0.43 M370.29 37.01 C382.66 21.29, 391.84 7.75, 401.78 0.79 M370.29 37.01 C380.89 23.29, 391.84 10.44, 401.78 0.79 M375.94 36.62 C383.97 30.9, 387.12 17.51, 407.43 0.39 M375.94 36.62 C385 25.81, 392.26 17.88, 407.43 0.39 M380.92 36.98 C385.93 32.54, 391.17 17.74, 412.41 0.75 M380.92 36.98 C392.94 23.25, 405.53 9.48, 412.41 0.75 M386.57 36.58 C392.64 27.27, 402.69 23.44, 418.06 0.36 M386.57 36.58 C399.97 25.26, 410.76 9.17, 418.06 0.36 M391.55 36.94 C397.72 29.75, 412.46 17.92, 423.04 0.72 M391.55 36.94 C399.58 29.22, 407.29 17.95, 423.04 0.72 M397.2 36.55 C411.88 24.81, 418.21 11.43, 428.69 0.32 M397.2 36.55 C407.54 22.03, 418.37 12.21, 428.69 0.32 M402.18 36.91 C413.26 29.57, 417.9 11.21, 433.67 0.68 M402.18 36.91 C411.96 26.52, 420.64 15.39, 433.67 0.68 M407.83 36.51 C416.16 28.4, 424.05 19.38, 439.32 0.29 M407.83 36.51 C415.05 26.22, 423.43 19.84, 439.32 0.29 M412.81 36.87 C422.86 25.39, 434.49 17.23, 444.3 0.65 M412.81 36.87 C420.51 30.39, 424.13 22.62, 444.3 0.65 M417.8 37.23 C427.42 29.11, 428.68 25.75, 449.95 0.25 M417.8 37.23 C424.38 29.07, 429.21 21.7, 449.95 0.25 M423.44 36.84 C435.38 22.78, 443.44 13.06, 454.93 0.61 M423.44 36.84 C434.16 24.08, 443.55 12.77, 454.93 0.61 M428.43 37.2 C436.21 28.35, 440.33 22.37, 459.92 0.97 M428.43 37.2 C441.98 23.28, 454.42 9.75, 459.92 0.97 M434.07 36.81 C438.53 29.5, 445.89 24.41, 465.56 0.58 M434.07 36.81 C439.98 25.77, 450.64 17.32, 465.56 0.58 M439.06 37.17 C454.29 24.77, 463.16 14.29, 470.55 0.94 M439.06 37.17 C448.19 26.22, 457.82 13.28, 470.55 0.94 M444.7 36.77 C456.25 26.99, 467.46 13.51, 476.19 0.55 M444.7 36.77 C455.23 27.14, 464.01 13.52, 476.19 0.55 M449.69 37.13 C456.36 28.9, 471.46 13.46, 481.18 0.91 M449.69 37.13 C458.57 28.49, 467.18 17.92, 481.18 0.91 M455.33 36.74 C464.45 23.16, 483.96 5.17, 486.82 0.51 M455.33 36.74 C465.92 27.56, 473.18 18.5, 486.82 0.51 M460.32 37.1 C464.78 30.45, 475.43 20.63, 491.81 0.87 M460.32 37.1 C472.25 23.59, 482.23 11.88, 491.81 0.87 M465.96 36.7 C476.71 30.32, 481.12 15.47, 497.45 0.48 M465.96 36.7 C476.17 24.37, 488.17 10.86, 497.45 0.48 M470.95 37.06 C486.52 19.95, 496.61 9.96, 502.44 0.84 M470.95 37.06 C481.69 24.63, 488.54 16.94, 502.44 0.84 M476.59 36.67 C485.73 25.76, 501.46 9.38, 508.08 0.44 M476.59 36.67 C487.22 25.38, 494.21 15.87, 508.08 0.44 M481.58 37.03 C491.09 29.72, 501.33 18.64, 513.07 0.8 M481.58 37.03 C491.09 23.05, 502.58 11.37, 513.07 0.8 M487.22 36.63 C497.64 20.68, 509.7 8.84, 518.71 0.41 M487.22 36.63 C498.73 24.36, 505.39 16.27, 518.71 0.41 M492.21 36.99 C497.27 28.17, 510.83 18.85, 523.7 0.77 M492.21 36.99 C499.07 27.39, 507.76 20.44, 523.7 0.77 M497.85 36.6 C507.87 24.5, 513.59 17.93, 529.34 0.37 M497.85 36.6 C507.64 26.29, 513.5 18.93, 529.34 0.37 M502.84 36.96 C510.38 26.54, 526.07 17.06, 534.33 0.73 M502.84 36.96 C510.94 26.03, 517.33 19.4, 534.33 0.73 M508.48 36.56 C519.94 26.31, 526.86 14.48, 539.97 0.34 M508.48 36.56 C515.38 26.64, 526.9 16, 539.97 0.34 M513.47 36.92 C526.12 27.84, 530.23 13.89, 544.96 0.7 M513.47 36.92 C525.8 24.94, 537.14 7.81, 544.96 0.7 M519.11 36.53 C526.93 26.41, 541.36 16.42, 550.6 0.3 M519.11 36.53 C526.45 25.55, 533.45 17.22, 550.6 0.3 M524.1 36.89 C534.47 23.2, 551.1 8.58, 555.59 0.66 M524.1 36.89 C537.69 24.4, 549.96 10.64, 555.59 0.66 M529.09 37.25 C540.72 21.52, 554.48 9.46, 561.23 0.27 M529.09 37.25 C535.18 30.01, 543.1 21.77, 561.23 0.27 M534.73 36.86 C545.17 24.27, 557.79 14.52, 566.22 0.63 M534.73 36.86 C541.34 25.82, 552.95 18.97, 566.22 0.63 M539.72 37.22 C554.35 19.58, 564.39 4.43, 571.21 0.99 M539.72 37.22 C545.91 27.09, 553.91 19.3, 571.21 0.99 M545.36 36.82 C553.43 25.79, 571.28 6.65, 576.85 0.59 M545.36 36.82 C555.01 27.69, 561.38 17.53, 576.85 0.59 M550.35 37.18 C563.27 26.19, 570.94 10.37, 581.84 0.95 M550.35 37.18 C561.9 23.87, 573.61 12.42, 581.84 0.95 M555.99 36.79 C564.83 26.57, 576.37 13.63, 587.48 0.56 M555.99 36.79 C564.24 26.32, 572.57 15.63, 587.48 0.56 M560.98 37.15 C569.9 30.89, 581.18 19.71, 592.47 0.92 M560.98 37.15 C569.58 26.77, 576.86 20.74, 592.47 0.92 M566.62 36.75 C574.05 23.24, 589.42 16.42, 598.11 0.53 M566.62 36.75 C579.18 25.39, 587.03 10.54, 598.11 0.53 M571.61 37.11 C581.83 25.7, 587.81 13.92, 603.1 0.89 M571.61 37.11 C581.7 23.32, 593.53 13.04, 603.1 0.89 M577.25 36.72 C585.87 26.96, 596.65 12.89, 608.74 0.49 M577.25 36.72 C582.67 27.89, 588.81 21.54, 608.74 0.49 M582.24 37.08 C591.12 27.32, 604.48 12.04, 613.73 0.85 M582.24 37.08 C591.2 31.43, 595.2 23.18, 613.73 0.85 M587.88 36.68 C592.74 26.75, 603.48 19, 619.37 0.46 M587.88 36.68 C601.11 23.92, 610.91 9.93, 619.37 0.46 M592.87 37.04 C606.65 29.59, 611.62 12.38, 624.36 0.82 M592.87 37.04 C605.43 25.05, 613.14 14.85, 624.36 0.82 M598.51 36.65 C609.32 27.93, 622.5 8.38, 630 0.42 M598.51 36.65 C608.38 27.66, 615.5 16.72, 630 0.42 M603.5 37.01 C608.16 25.6, 617.62 18.87, 634.99 0.78 M603.5 37.01 C617.37 23.3, 625.79 7.54, 634.99 0.78 M609.14 36.61 C621.22 26.13, 625.91 14.98, 640.63 0.39 M609.14 36.61 C617.65 27.89, 623.75 21.22, 640.63 0.39 M614.13 36.97 C621.08 30.12, 632.81 19.94, 645.62 0.75 M614.13 36.97 C624.15 26.28, 631.86 16.52, 645.62 0.75 M619.77 36.58 C629.71 26.55, 634.51 23.68, 651.26 0.35 M619.77 36.58 C627.9 27.22, 641.45 15.23, 651.26 0.35 M624.76 36.94 C634.19 25.34, 643.38 16.4, 656.25 0.71 M624.76 36.94 C631.42 29.07, 637.84 23.21, 656.25 0.71 M630.4 36.54 C644.57 25.21, 651.45 11.18, 661.89 0.32 M630.4 36.54 C639.58 22.34, 653.84 11.76, 661.89 0.32 M635.39 36.9 C645.12 26.17, 650.3 19.79, 666.88 0.68 M635.39 36.9 C644.34 27.68, 653.3 19.27, 666.88 0.68 M641.03 36.51 C649.08 26.94, 656.57 19.83, 672.52 0.28 M641.03 36.51 C647.88 27.81, 656.34 17.87, 672.52 0.28 M646.02 36.87 C651.18 22.69, 661.65 16.03, 677.51 0.64 M646.02 36.87 C657.48 22.11, 671.9 9.96, 677.51 0.64 M651.01 37.23 C658.32 28.45, 668.69 15.7, 683.15 0.25 M651.01 37.23 C657 31.1, 666.31 22.79, 683.15 0.25 M656.65 36.84 C661.94 29.43, 667.08 24.06, 688.14 0.61 M656.65 36.84 C670.01 21.33, 683.44 6.81, 688.14 0.61 M661.64 37.2 C672.77 26.56, 684.8 7.35, 693.13 0.97 M661.64 37.2 C671.74 26.67, 680.02 18.06, 693.13 0.97 M667.28 36.8 C680.62 22.1, 687.63 15.91, 698.77 0.58 M667.28 36.8 C673.17 29.75, 678.74 23.24, 698.77 0.58 M672.27 37.16 C678.46 32.44, 689.76 24.01, 703.76 0.94 M672.27 37.16 C683.6 26.34, 693.52 11.45, 703.76 0.94 M677.91 36.77 C690.16 28.36, 695.1 15.36, 709.4 0.54 M677.91 36.77 C690.52 22.51, 701.74 7.67, 709.4 0.54 M682.9 37.13 C693.29 28.39, 697.11 17.7, 714.39 0.9 M682.9 37.13 C694.92 23.67, 708.55 9.41, 714.39 0.9 M688.54 36.73 C696.27 27.33, 705.75 13.6, 720.03 0.51 M688.54 36.73 C701.01 24.22, 710.89 7.87, 720.03 0.51 M693.53 37.09 C699.23 24.84, 707.03 21.6, 725.02 0.87 M693.53 37.09 C701.29 30.4, 710.23 19.41, 725.02 0.87 M699.17 36.7 C714.45 20.04, 721.29 9.03, 730.66 0.47 M699.17 36.7 C708.27 26.2, 722.11 10.64, 730.66 0.47 M704.16 37.06 C715.53 22.28, 724.19 9.09, 735.65 0.83 M704.16 37.06 C713.42 24.88, 725.06 14.09, 735.65 0.83 M709.8 36.66 C721.14 26.98, 731.17 9.19, 741.29 0.44 M709.8 36.66 C718.45 26.47, 728.51 15.14, 741.29 0.44 M714.79 37.02 C719.98 27.97, 732.48 14.32, 746.28 0.8 M714.79 37.02 C724.25 25.51, 732.88 14.94, 746.28 0.8 M720.43 36.63 C731.18 25.57, 743.48 13.36, 751.92 0.4 M720.43 36.63 C730.4 26.04, 737.71 17.54, 751.92 0.4 M725.42 36.99 C735.62 27.07, 744.29 15.42, 756.91 0.76 M725.42 36.99 C731.51 29.83, 742.3 20.32, 756.91 0.76 M731.06 36.59 C743.61 24.93, 753.33 18.2, 762.55 0.37 M731.06 36.59 C740.01 28.62, 749.1 18.39, 762.55 0.37 M736.05 36.95 C746.03 29.49, 751.47 14.07, 767.54 0.73 M736.05 36.95 C744.39 26.66, 753.67 15.76, 767.54 0.73 M741.69 36.56 C755.16 22.62, 765.75 3.62, 773.18 0.33 M741.69 36.56 C750.81 26.39, 763.5 12.75, 773.18 0.33 M746.68 36.92 C754.32 25.74, 768.08 13.1, 778.17 0.69 M746.68 36.92 C757.95 24.21, 766.31 13.61, 778.17 0.69 M752.32 36.53 C759.6 26.64, 773.03 12.14, 783.81 0.3 M752.32 36.53 C764.43 23.48, 774.58 9.26, 783.81 0.3 M757.31 36.89 C767.28 25.87, 779.4 11.2, 788.8 0.66 M757.31 36.89 C770.69 24.51, 783.26 7.89, 788.8 0.66 M762.29 37.25 C774.38 27.42, 784.22 8.76, 794.44 0.26 M762.29 37.25 C774.82 22.24, 782.33 12.6, 794.44 0.26 M767.94 36.85 C772.67 27.51, 783.45 20.95, 799.43 0.63 M767.94 36.85 C775.04 29.41, 782.56 19.95, 799.43 0.63 M772.92 37.21 C778.69 30.14, 791.36 18.48, 804.41 0.99 M772.92 37.21 C786.15 24.55, 797.08 10.39, 804.41 0.99 M778.57 36.82 C790.43 28.55, 794.79 18.89, 808.75 2.1 M778.57 36.82 C787.88 24.86, 797.56 17.73, 808.75 2.1 M783.55 37.18 C789.36 26.26, 795.47 23.24, 812.42 3.97 M783.55 37.18 C792.22 25.69, 802.72 12.48, 812.42 3.97 M789.2 36.78 C796.93 27.94, 809.08 17.12, 814.78 7.35 M789.2 36.78 C797.5 26.66, 808.64 13.96, 814.78 7.35 M794.18 37.14 C798.69 32.92, 806.08 22.39, 815.18 12.99 M794.18 37.14 C801.24 28.59, 809.75 19.74, 815.18 12.99 M799.83 36.75 C801.45 30.95, 803.43 29.79, 814.92 19.39 M799.83 36.75 C803.3 34.42, 804.91 28.12, 814.92 19.39 M804.81 37.11 C808.41 32.8, 811.14 28.96, 813.34 27.3 M804.81 37.11 C807.03 33.66, 809.54 33.81, 813.34 27.3" stroke="#a5d8ff" stroke-width="0.5" fill="none"></path><path d="M9 0 M9 0 C176.17 -5.7, 343.6 -5.53, 804 0 M9 0 C212 1.67, 415.36 1.28, 804 0 M804 0 C813.87 -0.04, 810.27 5.48, 813 9 M804 0 C808.86 2.06, 811.65 6.75, 813 9 M813 9 C811.64 16.4, 809.89 16.05, 813 27 M813 9 C812.08 12.03, 811.04 16.29, 813 27 M813 27 C814.81 35.51, 809.63 39.76, 804 36 M813 27 C811.7 37.24, 811.38 37.71, 804 36 M804 36 C624.82 32.33, 442.48 32.49, 9 36 M804 36 C621.87 36.85, 441.57 36.65, 9 36 M9 36 C0.99 34.47, 0.53 29.22, 0 27 M9 36 C3.82 37.49, -0.81 30.28, 0 27 M0 27 C2.4 19.95, -0.95 15.11, 0 9 M0 27 C1.68 22.02, -0.62 15.9, 0 9 M0 9 C-3.29 1.8, 1.82 -0.43, 9 0 M0 9 C-4.22 1.55, -1.38 -0.18, 9 0" stroke="#e03131" stroke-width="1" fill="none"></path></g><g transform="translate(373.5639114379883 18.58333333333337) rotate(0 42.93608856201172 10)"><text x="42.93608856201172" y="0" font-family="Virgil, Segoe UI Emoji" font-size="16px" fill="#e03131" text-anchor="middle" style="white-space: pre;" direction="ltr" dominant-baseline="text-before-edge">Local(Disk)</text></g><g stroke-linecap="round" transform="translate(972.5 10) rotate(0 106.5 18.5)"><path d="M2.46 2.14 C2.46 2.14, 2.46 2.14, 2.46 2.14 M2.46 2.14 C2.46 2.14, 2.46 2.14, 2.46 2.14 M0.89 10.05 C1.69 5.62, 4.2 2.26, 9.42 0.24 M0.89 10.05 C2.83 6.33, 6.42 4.93, 9.42 0.24 M1.28 15.69 C6.58 8.8, 8.17 1.34, 15.06 -0.16 M1.28 15.69 C5.75 10.34, 9.47 6.29, 15.06 -0.16 M1.02 22.09 C3.68 12.76, 14.99 10.77, 20.05 0.2 M1.02 22.09 C5.74 15.63, 12.56 6.13, 20.05 0.2 M1.42 27.73 C5.54 22.31, 11.93 10.18, 25.03 0.56 M1.42 27.73 C8.14 21.68, 17.37 10.64, 25.03 0.56 M1.81 33.37 C10.82 22.46, 22.66 11.21, 30.68 0.17 M1.81 33.37 C9.71 20.83, 19.17 11.88, 30.68 0.17 M4.83 36 C20.05 25.9, 26.88 9.6, 35.66 0.53 M4.83 36 C16.31 22.76, 25.01 14.1, 35.66 0.53 M7.85 38.62 C12.49 32.85, 21.52 20.67, 41.31 0.13 M7.85 38.62 C19.77 22.97, 31.31 8.5, 41.31 0.13 M12.84 38.98 C21.4 25.67, 34.89 11.55, 46.29 0.49 M12.84 38.98 C22.57 24.28, 36.17 12.55, 46.29 0.49 M18.48 38.59 C29.27 21.06, 45.37 8.61, 51.94 0.1 M18.48 38.59 C24.79 27.17, 35.84 20.62, 51.94 0.1 M23.47 38.95 C38.57 28.29, 45.84 8.38, 56.92 0.46 M23.47 38.95 C31.25 27.5, 37.18 21.6, 56.92 0.46 M29.11 38.55 C39.01 22.86, 55.91 12.49, 62.57 0.06 M29.11 38.55 C40.4 24.27, 51.01 14.44, 62.57 0.06 M34.1 38.91 C44.99 20.09, 58.77 8.76, 67.55 0.42 M34.1 38.91 C45.73 24.03, 57.79 9.17, 67.55 0.42 M39.74 38.52 C52.79 22.87, 58.35 13.34, 73.2 0.03 M39.74 38.52 C48.4 29.89, 57.21 21.31, 73.2 0.03 M44.73 38.88 C54.74 29.14, 62.38 18.26, 78.18 0.39 M44.73 38.88 C52.09 27.86, 60.69 19.36, 78.18 0.39 M50.37 38.49 C59.03 28.2, 64.63 18.6, 83.17 0.75 M50.37 38.49 C56.48 27.84, 64.22 21.9, 83.17 0.75 M55.36 38.85 C68.3 25.94, 78.44 15.68, 88.82 0.35 M55.36 38.85 C65.36 29.36, 73.54 19.93, 88.82 0.35 M60.34 39.21 C75.65 26.97, 83.15 16.37, 93.8 0.72 M60.34 39.21 C71.39 24.56, 82.99 14.41, 93.8 0.72 M65.99 38.81 C78 21.06, 90.48 5.09, 99.45 0.32 M65.99 38.81 C78.65 26.32, 87.86 15.18, 99.45 0.32 M70.97 39.17 C84.68 30.89, 92.35 14.88, 104.43 0.68 M70.97 39.17 C79.96 29.14, 89.83 20.18, 104.43 0.68 M76.62 38.78 C87.66 24.29, 94.76 11.9, 110.08 0.29 M76.62 38.78 C82.99 30.03, 91.64 20.72, 110.08 0.29 M81.6 39.14 C93.47 29.17, 101.62 15.82, 115.06 0.65 M81.6 39.14 C92.56 25.34, 105.51 15.37, 115.06 0.65 M87.25 38.74 C99.05 22.96, 112.84 9.84, 120.71 0.25 M87.25 38.74 C97.78 26.38, 111.25 13.63, 120.71 0.25 M92.23 39.1 C98.46 27.43, 106.89 17.15, 125.69 0.61 M92.23 39.1 C102.95 25.2, 113.47 15.69, 125.69 0.61 M97.88 38.71 C110.24 26.72, 119.82 8.16, 131.34 0.22 M97.88 38.71 C105 26.87, 115.35 17.25, 131.34 0.22 M102.86 39.07 C109.63 28.01, 117.24 21.75, 136.32 0.58 M102.86 39.07 C111.03 26.97, 120.96 15.58, 136.32 0.58 M108.51 38.67 C116.91 31.99, 124.88 21.48, 141.31 0.94 M108.51 38.67 C122.96 24.85, 133.38 8.22, 141.31 0.94 M113.49 39.03 C127.89 30.86, 135.63 18.32, 146.95 0.54 M113.49 39.03 C126.53 23.63, 137.86 7.99, 146.95 0.54 M119.14 38.64 C125.27 31.47, 132.15 26.67, 151.94 0.9 M119.14 38.64 C131.42 24.03, 143.46 9.56, 151.94 0.9 M124.12 39 C129.98 28.04, 143.12 19.24, 157.58 0.51 M124.12 39 C136.65 26.83, 145.08 12.1, 157.58 0.51 M129.11 39.36 C134.28 28.75, 138.81 21.32, 162.57 0.87 M129.11 39.36 C140.71 27.83, 148.95 15.3, 162.57 0.87 M134.75 38.96 C143.2 26.83, 148.94 24.7, 168.21 0.47 M134.75 38.96 C142.82 31.55, 152.03 22.81, 168.21 0.47 M139.74 39.32 C151.67 26.22, 166.47 8.63, 173.2 0.83 M139.74 39.32 C148.94 28.71, 159.19 14.72, 173.2 0.83 M145.38 38.93 C158.51 23.27, 165.66 15.78, 178.84 0.44 M145.38 38.93 C154.92 25.35, 167.45 15.79, 178.84 0.44 M150.37 39.29 C159.17 25.5, 173.08 15.69, 183.83 0.8 M150.37 39.29 C159.25 27.29, 168.38 18.19, 183.83 0.8 M156.01 38.89 C166.66 23.38, 180.48 10.91, 189.47 0.4 M156.01 38.89 C170.29 27.3, 179.01 13.35, 189.47 0.4 M161 39.25 C176.04 21.31, 190 6.29, 194.46 0.76 M161 39.25 C171.68 28.5, 183.34 15.09, 194.46 0.76 M166.64 38.86 C179.86 28.9, 184.41 16.69, 200.1 0.37 M166.64 38.86 C174.08 31.68, 181.14 21.23, 200.1 0.37 M171.63 39.22 C179.03 25.52, 193.31 10.2, 205.09 0.73 M171.63 39.22 C183.39 24.98, 192.5 11.88, 205.09 0.73 M177.27 38.83 C188.3 30.16, 189.07 24.97, 209.42 1.85 M177.27 38.83 C187.04 26.25, 196.43 15.75, 209.42 1.85 M182.26 39.19 C191.71 33.36, 195.65 24.44, 212.44 4.47 M182.26 39.19 C191.61 29.6, 196.71 18.39, 212.44 4.47 M187.25 39.55 C194.09 26.35, 200.97 21.3, 214.8 7.85 M187.25 39.55 C196.86 30.12, 205.95 16.23, 214.8 7.85 M192.89 39.15 C204.75 32.74, 214 17.56, 215.2 13.49 M192.89 39.15 C199.6 31.59, 207.41 23.13, 215.2 13.49 M197.88 39.51 C201.87 35.68, 204.99 28.6, 214.94 19.89 M197.88 39.51 C203.87 35.47, 205.31 28.43, 214.94 19.89 M204.83 37.61 C209.98 35.85, 212.45 30.79, 215.33 25.53 M204.83 37.61 C208.6 33.94, 213.71 26.5, 215.33 25.53" stroke="#a5d8ff" stroke-width="0.5" fill="none"></path><path d="M9.25 0 M9.25 0 C68.47 1.58, 134.64 -2.58, 203.75 0 M9.25 0 C73.49 4.36, 137.05 4.99, 203.75 0 M203.75 0 C210.75 0.78, 212.21 1.28, 213 9.25 M203.75 0 C209.33 -0.57, 213.04 -0.88, 213 9.25 M213 9.25 C212.1 16.28, 211.96 18.77, 213 27.75 M213 9.25 C212.06 14.76, 213.2 20.77, 213 27.75 M213 27.75 C214.18 33.01, 212.59 40.59, 203.75 37 M213 27.75 C208.81 32.8, 211.97 34.51, 203.75 37 M203.75 37 C150.03 38.28, 94.76 34.23, 9.25 37 M203.75 37 C154.25 32.94, 103.59 36.09, 9.25 37 M9.25 37 C1.36 37.48, 1.26 31.8, 0 27.75 M9.25 37 C7.24 39.64, 1.42 31.2, 0 27.75 M0 27.75 C0.16 21.84, -2.86 11.74, 0 9.25 M0 27.75 C-1.16 19.29, -1.76 13.1, 0 9.25 M0 9.25 C3.45 -0.66, 3.18 1.91, 9.25 0 M0 9.25 C2.95 6.86, 1.05 -1.52, 9.25 0" stroke="#e03131" stroke-width="1" fill="none"></path></g><g transform="translate(1023.9999008178711 18.5) rotate(0 55.000099182128906 10)"><text x="55.000099182128906" y="0" font-family="Virgil, Segoe UI Emoji" font-size="16px" fill="#e03131" text-anchor="middle" style="white-space: pre;" direction="ltr" dominant-baseline="text-before-edge">Remote(Cloud)</text></g><g stroke-linecap="round" transform="translate(971 58.25) rotate(0 108.5 40.5)"><path d="M5.39 4.69 C5.39 4.69, 5.39 4.69, 5.39 4.69 M5.39 4.69 C5.39 4.69, 5.39 4.69, 5.39 4.69 M1.19 15.61 C8.26 11.95, 9.44 2.38, 13 2.03 M1.19 15.61 C7.45 11.96, 9.18 4.15, 13 2.03 M0.93 22.01 C9.21 12.73, 16.99 9.83, 18.64 1.63 M0.93 22.01 C6.59 19.07, 9.99 10.67, 18.64 1.63 M0.67 28.41 C2.29 19.26, 7.5 14.4, 22.98 2.75 M0.67 28.41 C10.14 17.39, 18.34 6.72, 22.98 2.75 M1.06 34.05 C4.69 24.81, 12.23 12.98, 28.62 2.35 M1.06 34.05 C7.3 27.08, 14 17.46, 28.62 2.35 M0.8 40.45 C7.02 28.28, 17.71 19.58, 33.61 2.71 M0.8 40.45 C9.27 31.84, 15.9 25.2, 33.61 2.71 M0.54 46.85 C17.65 34.15, 30.28 15.31, 39.25 2.32 M0.54 46.85 C15.87 32.5, 28.2 14.24, 39.25 2.32 M0.94 52.49 C20.37 35.01, 32.75 17.43, 44.24 2.68 M0.94 52.49 C10.69 41.34, 20.49 26.8, 44.24 2.68 M0.67 58.89 C8.01 47.89, 21.84 35.21, 49.22 3.04 M0.67 58.89 C14.42 42.54, 33.11 23.23, 49.22 3.04 M1.07 64.53 C14.94 44.65, 36.11 27.56, 54.87 2.64 M1.07 64.53 C15.05 46.11, 32.64 24.53, 54.87 2.64 M3.43 67.91 C20.07 51.48, 33.25 28.54, 59.85 3 M3.43 67.91 C18.88 48.4, 36.76 31.7, 59.85 3 M5.14 72.04 C18.04 56.07, 43.05 35.29, 65.5 2.61 M5.14 72.04 C25.17 46.91, 47.41 23.74, 65.5 2.61 M6.19 76.93 C25.58 54.46, 44.58 29.76, 70.48 2.97 M6.19 76.93 C21.4 63.48, 34.6 45.52, 70.48 2.97 M9.86 78.8 C36.3 56.87, 57.89 29.59, 76.13 2.57 M9.86 78.8 C32.35 50.48, 55.74 23.99, 76.13 2.57 M12.88 81.42 C40.26 55.24, 60.3 23.53, 81.11 2.93 M12.88 81.42 C34.8 55.41, 53 33.83, 81.11 2.93 M18.53 81.03 C40.1 56.78, 61.05 26.63, 86.1 3.29 M18.53 81.03 C32.58 66.99, 46.94 47.62, 86.1 3.29 M23.51 81.39 C47.59 54.58, 74.2 24.64, 91.74 2.9 M23.51 81.39 C41.39 65, 53.03 45.87, 91.74 2.9 M29.16 81 C42.72 65.32, 59.37 42.68, 96.73 3.26 M29.16 81 C46.91 61.68, 60.37 42.31, 96.73 3.26 M34.14 81.36 C52.52 67.48, 65.54 50.42, 102.37 2.87 M34.14 81.36 C57.24 52.76, 84.95 24.19, 102.37 2.87 M39.13 81.72 C54.57 59.72, 74.75 48.74, 107.36 3.23 M39.13 81.72 C59.76 55.99, 83.26 28.32, 107.36 3.23 M44.77 81.32 C60.78 64.49, 73.7 49.91, 113 2.83 M44.77 81.32 C60.77 58.94, 81.3 35.71, 113 2.83 M49.76 81.68 C72.95 53.99, 91.58 31.17, 117.99 3.19 M49.76 81.68 C73.19 55.66, 98.17 28.37, 117.99 3.19 M55.4 81.29 C74.62 67.14, 85.69 44.77, 122.98 3.55 M55.4 81.29 C68.34 64.57, 83.61 50.19, 122.98 3.55 M60.39 81.65 C72.86 66.8, 89.74 46.25, 128.62 3.16 M60.39 81.65 C78.71 58.91, 99.27 38.18, 128.62 3.16 M66.03 81.25 C93.84 47.01, 117.34 20.81, 133.61 3.52 M66.03 81.25 C90.82 54.69, 111.59 29.86, 133.61 3.52 M71.02 81.61 C82.34 64.57, 100.86 45.18, 139.25 3.12 M71.02 81.61 C85.41 65.43, 96.94 48.03, 139.25 3.12 M76.01 81.97 C96.61 53.78, 122.14 23.21, 144.24 3.48 M76.01 81.97 C101.86 53.96, 129.16 20.58, 144.24 3.48 M81.65 81.58 C105.59 51.47, 126.12 26.58, 149.88 3.09 M81.65 81.58 C96.44 60.65, 117.29 42.98, 149.88 3.09 M86.64 81.94 C101.89 62.5, 122.06 38.46, 154.87 3.45 M86.64 81.94 C115.13 49.25, 142.12 20.75, 154.87 3.45 M92.28 81.54 C119.08 48.34, 147.01 23.87, 159.85 3.81 M92.28 81.54 C107.17 67.6, 121.99 50.19, 159.85 3.81 M97.27 81.9 C120.25 58.68, 139.69 28.78, 165.5 3.41 M97.27 81.9 C120.37 59.09, 141.68 32.3, 165.5 3.41 M102.91 81.51 C120.99 65.21, 140.24 44.97, 170.48 3.77 M102.91 81.51 C116.26 65.24, 131.74 45.62, 170.48 3.77 M107.9 81.87 C134.16 53.8, 153.59 36, 176.13 3.38 M107.9 81.87 C124.97 63.51, 141.52 44, 176.13 3.38 M112.88 82.23 C129.48 61.92, 142.84 43.29, 181.11 3.74 M112.88 82.23 C125.71 66.2, 139.44 51.85, 181.11 3.74 M118.53 81.83 C135.6 57.94, 157.64 43.19, 186.76 3.34 M118.53 81.83 C147.76 48.93, 172.99 20.04, 186.76 3.34 M123.51 82.19 C143.94 57.7, 166.56 33.28, 191.74 3.7 M123.51 82.19 C138.14 66.79, 155.97 48.5, 191.74 3.7 M129.16 81.8 C147.9 58.38, 170.19 41.01, 196.73 4.06 M129.16 81.8 C150.31 56.25, 172.44 31.25, 196.73 4.06 M134.14 82.16 C160.2 55.26, 180.21 30.25, 202.37 3.67 M134.14 82.16 C160.56 49.63, 187.85 21.98, 202.37 3.67 M139.79 81.77 C154.38 63.06, 167.12 45.71, 208.02 3.28 M139.79 81.77 C158.56 62.11, 180.57 37.13, 208.02 3.28 M144.77 82.13 C168.64 53.51, 196.62 25.27, 211.04 5.9 M144.77 82.13 C165.88 57.07, 187.41 35.42, 211.04 5.9 M149.76 82.49 C161.53 65.34, 176.67 51.49, 214.71 7.77 M149.76 82.49 C167.22 59.73, 190.39 36.88, 214.71 7.77 M155.4 82.09 C177.3 61.63, 191.15 44.82, 215.76 12.66 M155.4 82.09 C169.68 63.06, 185.93 48.78, 215.76 12.66 M160.39 82.45 C173.71 61.91, 195.74 45.6, 217.47 16.79 M160.39 82.45 C174.15 65.54, 192.49 47.45, 217.47 16.79 M166.03 82.06 C184.42 61.6, 195.48 43.03, 217.86 22.43 M166.03 82.06 C185.73 59.44, 203.01 38.85, 217.86 22.43 M171.02 82.42 C189.09 59.47, 203.38 46.35, 217.6 28.83 M171.02 82.42 C181.83 71.11, 195.32 57.84, 217.6 28.83 M176.67 82.02 C183.44 75.34, 194.7 59.34, 217.34 35.23 M176.67 82.02 C186.26 71.11, 197.92 59.02, 217.34 35.23 M181.65 82.38 C187.97 73.37, 200.81 64.42, 217.08 41.63 M181.65 82.38 C187.59 71.82, 195.75 64.41, 217.08 41.63 M186.64 82.74 C198.27 73.01, 202.99 63.11, 217.47 47.27 M186.64 82.74 C196.67 72.31, 203.84 61.29, 217.47 47.27 M192.28 82.35 C202.87 68.84, 209.09 66.06, 217.21 53.67 M192.28 82.35 C199.65 75.51, 204.66 67.99, 217.21 53.67 M197.93 81.95 C198.71 76.36, 208.39 75.19, 216.95 60.07 M197.93 81.95 C206.13 75.69, 211.4 65.94, 216.95 60.07 M204.22 80.8 C208.74 72.11, 216.92 71.96, 216.69 66.46 M204.22 80.8 C208.05 76.51, 208.86 75.36, 216.69 66.46" stroke="#ffec99" stroke-width="0.5" fill="none"></path><path d="M20.25 0 M20.25 0 C86.57 -4.42, 158.06 -5.7, 196.75 0 M20.25 0 C88.06 -2.26, 156.16 -3.9, 196.75 0 M196.75 0 C212.04 2.84, 220.54 9.53, 217 20.25 M196.75 0 C212.83 2.82, 213.59 7.18, 217 20.25 M217 20.25 C221.63 33.03, 220.81 52.41, 217 60.75 M217 20.25 C218.7 36.61, 218.09 50.68, 217 60.75 M217 60.75 C213.01 76.68, 210.47 81.99, 196.75 81 M217 60.75 C220.18 73.15, 207.18 81.41, 196.75 81 M196.75 81 C149.38 78.03, 107.46 75.88, 20.25 81 M196.75 81 C156.43 80.07, 114.18 77.21, 20.25 81 M20.25 81 C2.95 84.25, -1.22 70.91, 0 60.75 M20.25 81 C8 77.83, -1.72 75.23, 0 60.75 M0 60.75 C-2.42 50.3, -2.69 35.39, 0 20.25 M0 60.75 C0.62 52.18, 1.53 44.45, 0 20.25 M0 20.25 C-1.62 8.01, 6.14 2.88, 20.25 0 M0 20.25 C4.52 5.47, 2.38 0.14, 20.25 0" stroke="#f08c00" stroke-width="1" fill="none"></path></g><g transform="translate(1034.7239074707031 78.75) rotate(0 44.776092529296875 20)"><text x="44.776092529296875" y="0" font-family="Virgil, Segoe UI Emoji" font-size="16px" fill="#f08c00" text-anchor="middle" style="white-space: pre;" direction="ltr" dominant-baseline="text-before-edge">Remote Git</text><text x="44.776092529296875" y="20" font-family="Virgil, Segoe UI Emoji" font-size="16px" fill="#f08c00" text-anchor="middle" style="white-space: pre;" direction="ltr" dominant-baseline="text-before-edge">Repo</text></g><g stroke-linecap="round" transform="translate(10.333333333333371 67.58333333333337) rotate(0 80.5 32.5)"><path d="M6.06 2.62 C6.06 2.62, 6.06 2.62, 6.06 2.62 M6.06 2.62 C6.06 2.62, 6.06 2.62, 6.06 2.62 M1.86 13.54 C6.15 11.37, 11.68 2.36, 13.01 0.71 M1.86 13.54 C4.81 11.1, 8.31 4.93, 13.01 0.71 M1.6 19.94 C6.64 16.15, 16.85 8.7, 18 1.07 M1.6 19.94 C7.08 11.55, 14.07 5.35, 18 1.07 M1.99 25.58 C5.89 21.91, 10.17 10.94, 22.99 1.43 M1.99 25.58 C10.85 14.6, 17.54 4.29, 22.99 1.43 M1.73 31.98 C8.57 27.35, 15.79 18.04, 28.63 1.04 M1.73 31.98 C8.28 21.76, 16.4 13.61, 28.63 1.04 M1.47 38.38 C15.62 22.23, 26.05 13.2, 33.62 1.4 M1.47 38.38 C14.1 23.49, 26.1 8.98, 33.62 1.4 M1.87 44.02 C12.97 37.75, 22.7 29.05, 38.61 1.76 M1.87 44.02 C16.12 28.77, 31.21 13.6, 38.61 1.76 M1.6 50.42 C13.59 42.37, 20.46 27.03, 44.25 1.36 M1.6 50.42 C15.83 32.67, 33.12 15.32, 44.25 1.36 M3.31 54.55 C23.44 35.11, 40.92 13.41, 49.24 1.72 M3.31 54.55 C19.57 32.76, 38.55 15.09, 49.24 1.72 M3.71 60.2 C20.73 41.73, 38.93 16.46, 54.88 1.33 M3.71 60.2 C21.56 40.18, 41.19 19.91, 54.88 1.33 M6.72 62.82 C19.84 45.07, 35.61 30.7, 59.87 1.69 M6.72 62.82 C26.09 40.74, 45.24 17.53, 59.87 1.69 M10.4 64.69 C26.72 40.05, 49.7 17.87, 64.85 2.05 M10.4 64.69 C20.86 52.38, 32.95 37.37, 64.85 2.05 M15.39 65.05 C32.66 39.44, 53.39 18.39, 70.5 1.66 M15.39 65.05 C29.81 50.02, 45.99 29.75, 70.5 1.66 M21.03 64.66 C38.81 41.47, 53.69 25.84, 75.48 2.02 M21.03 64.66 C34.3 51.59, 45.61 38.35, 75.48 2.02 M26.02 65.02 C42.81 39.32, 62.57 20.48, 81.13 1.62 M26.02 65.02 C44.47 41.94, 66.8 18.41, 81.13 1.62 M31 65.38 C41.21 48.98, 55.62 30.78, 86.11 1.98 M31 65.38 C47.48 48.01, 63.24 26.78, 86.11 1.98 M36.65 64.98 C53.92 50.68, 67.49 34.94, 91.76 1.59 M36.65 64.98 C50.11 49.38, 62.27 36.94, 91.76 1.59 M41.63 65.34 C56.11 45.16, 78.71 21.76, 96.74 1.95 M41.63 65.34 C56.69 48.09, 76.26 28.26, 96.74 1.95 M47.28 64.95 C66.92 49.66, 80.98 24.06, 101.73 2.31 M47.28 64.95 C65.05 46.67, 78.17 28.42, 101.73 2.31 M52.26 65.31 C74.26 40.23, 97.04 19.04, 107.37 1.91 M52.26 65.31 C65.43 51.17, 80.68 33.21, 107.37 1.91 M57.91 64.91 C69.79 48.96, 89.97 28.33, 112.36 2.27 M57.91 64.91 C76.97 43.25, 93.26 24.72, 112.36 2.27 M62.89 65.27 C77.72 49.69, 86.98 38.17, 118 1.88 M62.89 65.27 C72.15 52.08, 83.72 38.45, 118 1.88 M67.88 65.63 C90.57 38.16, 111.94 14.34, 122.99 2.24 M67.88 65.63 C89.76 40.12, 110.92 18.87, 122.99 2.24 M73.52 65.24 C92.13 38.68, 113.26 17.13, 128.63 1.84 M73.52 65.24 C89.64 45.37, 109.87 21.66, 128.63 1.84 M78.51 65.6 C97.84 42.29, 115.07 26.73, 133.62 2.2 M78.51 65.6 C88 53.58, 99.84 40.71, 133.62 2.2 M84.15 65.2 C97.63 41.78, 119 24.8, 138.61 2.56 M84.15 65.2 C95.91 51.92, 112.06 35.75, 138.61 2.56 M89.14 65.56 C105.46 42.39, 128.34 22.23, 144.25 2.17 M89.14 65.56 C103.28 48.4, 115.12 35.73, 144.25 2.17 M94.78 65.17 C107.64 51.78, 118.11 36.24, 149.24 2.53 M94.78 65.17 C111.19 44.76, 128.81 23.77, 149.24 2.53 M99.77 65.53 C117.43 38.58, 138.9 18.11, 154.22 2.89 M99.77 65.53 C113.71 49.14, 129.06 31.92, 154.22 2.89 M104.76 65.89 C125.12 39.88, 142.62 23.92, 157.24 5.51 M104.76 65.89 C122.61 46.25, 137.05 28.53, 157.24 5.51 M110.4 65.5 C118.65 56.02, 133.53 40.25, 160.26 8.14 M110.4 65.5 C124.65 49.56, 137.14 32.64, 160.26 8.14 M115.39 65.86 C134.8 44.22, 150.12 24.62, 161.31 13.03 M115.39 65.86 C127.26 52.22, 140.56 38.09, 161.31 13.03 M121.03 65.46 C127.86 51.01, 144.39 37.05, 161.05 19.42 M121.03 65.46 C132.19 52.84, 142.45 38.11, 161.05 19.42 M126.02 65.82 C133.58 53.56, 139.64 49.55, 161.45 25.07 M126.02 65.82 C133.96 56.94, 145.27 45.28, 161.45 25.07 M131.01 66.18 C136.98 57.82, 146.43 46.19, 161.18 31.46 M131.01 66.18 C137.66 55.69, 144.83 45.85, 161.18 31.46 M136.65 65.79 C142.56 60.9, 151.33 55.04, 160.92 37.86 M136.65 65.79 C144.32 60.38, 148.99 53.48, 160.92 37.86 M141.64 66.15 C148.52 60.9, 153.11 56.88, 160.66 44.26 M141.64 66.15 C144.66 59.66, 150.03 55.15, 160.66 44.26 M146.62 66.51 C148.03 63.58, 157.88 53.17, 160.4 50.66 M146.62 66.51 C150.88 62.49, 155.93 54.51, 160.4 50.66" stroke="#b2f2bb" stroke-width="0.5" fill="none"></path><path d="M16.25 0 M16.25 0 C61.3 -3, 105.78 -5.47, 144.75 0 M16.25 0 C57.92 -1.77, 104.92 -3.45, 144.75 0 M144.75 0 C152.22 -0.35, 159.53 4.42, 161 16.25 M144.75 0 C152.54 3.18, 164.09 5.94, 161 16.25 M161 16.25 C158.49 24.12, 163.02 32.58, 161 48.75 M161 16.25 C161.78 25.62, 161.71 32.44, 161 48.75 M161 48.75 C161.49 62.6, 154.38 64.84, 144.75 65 M161 48.75 C165.19 61.01, 158.72 62.47, 144.75 65 M144.75 65 C95.55 62.91, 46.24 68.67, 16.25 65 M144.75 65 C99.17 67.84, 55.11 66.31, 16.25 65 M16.25 65 C4.72 68.75, 2.7 61.79, 0 48.75 M16.25 65 C5.17 61.48, 3.72 62.71, 0 48.75 M0 48.75 C1.6 39.41, -3.11 36.43, 0 16.25 M0 48.75 C0.11 35.44, 2.28 22.43, 0 16.25 M0 16.25 C3.34 2.7, 8.93 0.22, 16.25 0 M0 16.25 C1.95 6.58, 3.58 2.05, 16.25 0" stroke="#2f9e44" stroke-width="1" fill="none"></path></g><g transform="translate(19.185178120931027 90.08333333333337) rotate(0 71.64815521240234 10)"><text x="71.64815521240234" y="0" font-family="Virgil, Segoe UI Emoji" font-size="16px" fill="#2f9e44" text-anchor="middle" style="white-space: pre;" direction="ltr" dominant-baseline="text-before-edge">Working Repository</text></g><g stroke-linecap="round" transform="translate(286.33333333333337 67.58333333333337) rotate(0 79 31.5)"><path d="M5.91 2.49 C5.91 2.49, 5.91 2.49, 5.91 2.49 M5.91 2.49 C5.91 2.49, 5.91 2.49, 5.91 2.49 M1.72 13.42 C1.44 13.2, 5.52 7.67, 12.87 0.59 M1.72 13.42 C7.18 10.82, 10.67 5.75, 12.87 0.59 M1.45 19.81 C3.04 14.13, 9.18 11.4, 17.2 1.7 M1.45 19.81 C7.32 13.27, 12 4.73, 17.2 1.7 M1.85 25.46 C11.03 17.92, 12.96 14.81, 22.84 1.31 M1.85 25.46 C8.98 20.43, 13.46 13.57, 22.84 1.31 M1.59 31.85 C5.74 22.73, 12.85 18.06, 27.83 1.67 M1.59 31.85 C12.49 19.79, 20.57 8.85, 27.83 1.67 M1.98 37.5 C9.61 23.16, 25 13.81, 33.47 1.27 M1.98 37.5 C15.63 21.95, 26.31 7.48, 33.47 1.27 M1.72 43.9 C15.85 33.22, 19.36 22.09, 38.46 1.63 M1.72 43.9 C13.86 31.36, 24.56 17.3, 38.46 1.63 M0.8 51.05 C14.27 33.84, 22.44 22.42, 43.45 1.99 M0.8 51.05 C17.88 33.01, 31.31 15.17, 43.45 1.99 M2.51 55.18 C18.14 33.28, 33.57 14.35, 49.09 1.6 M2.51 55.18 C18.37 39.18, 32.32 23.45, 49.09 1.6 M4.22 59.32 C20.38 45.27, 35.17 23.63, 54.08 1.96 M4.22 59.32 C15.62 45.95, 32.57 29.16, 54.08 1.96 M7.89 61.18 C28.63 39.7, 44.18 15.06, 59.72 1.56 M7.89 61.18 C21.31 45.56, 35.42 30.45, 59.72 1.56 M10.91 63.81 C32.22 39.97, 50.97 15.97, 64.71 1.92 M10.91 63.81 C20.43 50.01, 32.16 39.88, 64.71 1.92 M15.9 64.17 C33.99 48.86, 49.06 25.42, 70.35 1.53 M15.9 64.17 C32.43 46.33, 44.36 28.72, 70.35 1.53 M21.54 63.77 C34.13 48.8, 51.12 27.38, 75.34 1.89 M21.54 63.77 C39.16 45.87, 53.45 26.33, 75.34 1.89 M26.53 64.13 C44.58 42.86, 67.74 24.01, 80.32 2.25 M26.53 64.13 C43.16 41.32, 64.27 20.36, 80.32 2.25 M32.17 63.74 C46.09 45, 63.14 28.1, 85.97 1.85 M32.17 63.74 C48.71 45.5, 64.35 23.74, 85.97 1.85 M37.16 64.1 C58.8 37.31, 77.65 16.04, 90.95 2.21 M37.16 64.1 C58.33 39.82, 78.21 17.69, 90.95 2.21 M42.8 63.71 C59.87 48.76, 66.9 34.56, 96.6 1.82 M42.8 63.71 C53.28 47.71, 66.89 33.29, 96.6 1.82 M47.79 64.07 C65.06 47.29, 88.11 19.77, 101.58 2.18 M47.79 64.07 C66.78 43.21, 83.88 21.66, 101.58 2.18 M52.77 64.43 C60.31 52.29, 76.07 42.06, 107.23 1.79 M52.77 64.43 C65.01 49.38, 81.7 30.1, 107.23 1.79 M58.42 64.03 C81.53 44.04, 99.01 23.16, 112.21 2.15 M58.42 64.03 C73.86 46.13, 86.06 31.63, 112.21 2.15 M63.4 64.39 C77.39 53.38, 82.92 36.92, 117.2 2.51 M63.4 64.39 C78.03 51.07, 90.32 32.75, 117.2 2.51 M69.05 64 C92.07 40.34, 108.5 15.96, 122.84 2.11 M69.05 64 C80.53 48.93, 96.97 31.82, 122.84 2.11 M74.03 64.36 C96 42.88, 116.04 12.61, 127.83 2.47 M74.03 64.36 C84.41 49.77, 95.74 35.19, 127.83 2.47 M79.68 63.96 C98.48 42.41, 119.84 19.85, 133.47 2.08 M79.68 63.96 C91.4 49.79, 108.16 34.04, 133.47 2.08 M84.66 64.32 C94.38 47.94, 111.76 33.81, 138.46 2.44 M84.66 64.32 C101.86 45.03, 119.04 24.95, 138.46 2.44 M89.65 64.68 C110.29 49.17, 126.24 24.5, 144.1 2.04 M89.65 64.68 C99.78 53.28, 113.05 39.87, 144.1 2.04 M95.29 64.29 C113.93 43.3, 132.36 25.52, 149.75 1.65 M95.29 64.29 C106.03 50.44, 117.78 40.45, 149.75 1.65 M100.28 64.65 C108.92 50.43, 126.84 34.22, 152.77 4.27 M100.28 64.65 C120.44 39.61, 141.38 16.33, 152.77 4.27 M105.92 64.25 C125.61 50.29, 136 32.16, 156.44 6.14 M105.92 64.25 C118.67 50.84, 131.6 34.11, 156.44 6.14 M110.91 64.61 C124.18 50.05, 143.43 26.77, 157.49 11.03 M110.91 64.61 C122.79 50.05, 136.51 35.56, 157.49 11.03 M116.55 64.22 C128.61 53.36, 141.12 33.26, 159.85 14.41 M116.55 64.22 C126.88 51.76, 138.69 38.6, 159.85 14.41 M121.54 64.58 C133.77 50.86, 154.64 28.96, 160.25 20.05 M121.54 64.58 C132.6 52.69, 145.9 36.43, 160.25 20.05 M126.53 64.94 C133.64 59.67, 139.63 46.99, 159.99 26.45 M126.53 64.94 C136.78 50.35, 148.14 38.91, 159.99 26.45 M132.17 64.54 C140.44 52.46, 152.95 42.63, 159.73 32.85 M132.17 64.54 C138.51 54.34, 149.86 43.9, 159.73 32.85 M137.16 64.9 C145.77 60.97, 150.32 49.97, 159.46 39.24 M137.16 64.9 C147.21 56.2, 152.61 44.36, 159.46 39.24 M143.46 63.76 C152.26 57.48, 159.19 48.25, 159.86 44.89 M143.46 63.76 C148.99 58.73, 154.54 51.82, 159.86 44.89 M149.76 62.61 C150.16 59.75, 153.58 56.66, 156.97 54.3 M149.76 62.61 C151.45 60.27, 153.1 58.39, 156.97 54.3" stroke="#b2f2bb" stroke-width="0.5" fill="none"></path><path d="M15.75 0 M15.75 0 C44.19 -2.11, 71.77 0.16, 142.25 0 M15.75 0 C60.54 -1.41, 110.65 -2.26, 142.25 0 M142.25 0 C152.59 3.64, 159.24 7.97, 158 15.75 M142.25 0 C150.22 3.63, 153.67 6.83, 158 15.75 M158 15.75 C160.32 26.99, 159.84 35.75, 158 47.25 M158 15.75 C158.58 24.89, 160.38 36.07, 158 47.25 M158 47.25 C160.21 57.54, 149.69 66.23, 142.25 63 M158 47.25 C161.13 55.19, 157.18 65.37, 142.25 63 M142.25 63 C100.8 64.65, 48.92 64.31, 15.75 63 M142.25 63 C105.41 66.87, 70.37 66.96, 15.75 63 M15.75 63 C5.47 64.7, 1.01 56.15, 0 47.25 M15.75 63 C7.3 66.26, 4.07 60.95, 0 47.25 M0 47.25 C-0.01 38.27, 2.9 24.42, 0 15.75 M0 47.25 C1.92 36.37, 1.81 21.57, 0 15.75 M0 15.75 C2.14 6.81, 6.17 -1.46, 15.75 0 M0 15.75 C-4.59 8.05, 5.51 1.14, 15.75 0" stroke="#2f9e44" stroke-width="1" fill="none"></path></g><g transform="translate(314.70921071370446 89.08333333333337) rotate(0 50.624122619628906 10)"><text x="50.624122619628906" y="0" font-family="Virgil, Segoe UI Emoji" font-size="16px" fill="#2f9e44" text-anchor="middle" style="white-space: pre;" direction="ltr" dominant-baseline="text-before-edge">Staging Area</text></g><g stroke-linecap="round" transform="translate(584 58.58333333333337) rotate(0 122.5 40.5)"><path d="M5.39 4.69 C5.39 4.69, 5.39 4.69, 5.39 4.69 M5.39 4.69 C5.39 4.69, 5.39 4.69, 5.39 4.69 M1.19 15.61 C7.22 14.74, 8.6 10.1, 13 2.03 M1.19 15.61 C3.06 11.5, 6.26 9.4, 13 2.03 M0.93 22.01 C10.49 13.51, 13.64 6.58, 18.64 1.63 M0.93 22.01 C5.4 14.02, 13.77 8.57, 18.64 1.63 M0.67 28.41 C11.92 15.39, 17.48 4.64, 22.98 2.75 M0.67 28.41 C8.88 21.74, 11.79 14.85, 22.98 2.75 M1.06 34.05 C12.31 24.5, 19.93 12.23, 28.62 2.35 M1.06 34.05 C9.43 23.46, 15.14 15.89, 28.62 2.35 M0.8 40.45 C15.43 25.53, 23.43 11.52, 33.61 2.71 M0.8 40.45 C11.86 25.58, 22.83 12.37, 33.61 2.71 M0.54 46.85 C14.91 34.63, 26.46 21.99, 39.25 2.32 M0.54 46.85 C12.39 35.42, 23.84 19.93, 39.25 2.32 M0.94 52.49 C8.64 43.09, 27.31 27.03, 44.24 2.68 M0.94 52.49 C17.26 34.7, 31.32 15.14, 44.24 2.68 M0.67 58.89 C12.5 43.87, 26.81 29.65, 49.22 3.04 M0.67 58.89 C19.66 37.38, 37.65 15.47, 49.22 3.04 M1.07 64.53 C8.83 49.36, 21.51 41.48, 54.87 2.64 M1.07 64.53 C17.56 48.13, 32.74 27.62, 54.87 2.64 M3.43 67.91 C21.78 48.78, 31.96 29.27, 59.85 3 M3.43 67.91 C17.56 51.61, 34.01 31.75, 59.85 3 M5.14 72.04 C25.06 52.39, 39.24 29.85, 65.5 2.61 M5.14 72.04 C26.61 47.92, 50.08 24.82, 65.5 2.61 M6.19 76.93 C24.9 49.51, 51.75 25.27, 70.48 2.97 M6.19 76.93 C22.52 56.16, 40.6 36.72, 70.48 2.97 M9.86 78.8 C30.42 56.65, 48.7 28.08, 76.13 2.57 M9.86 78.8 C36.15 46.61, 61.25 17.94, 76.13 2.57 M12.88 81.42 C39.58 50.22, 63.87 23.79, 81.11 2.93 M12.88 81.42 C32.3 62.4, 46.24 43.31, 81.11 2.93 M18.53 81.03 C30.97 59.81, 48.81 41.75, 86.76 2.54 M18.53 81.03 C41.11 56.75, 67.05 26.41, 86.76 2.54 M23.51 81.39 C48.02 55.78, 68.08 28.97, 91.74 2.9 M23.51 81.39 C35.51 65.66, 51.73 50.96, 91.74 2.9 M29.16 81 C43.02 63.38, 65.65 37.18, 96.73 3.26 M29.16 81 C55.27 54.95, 77.73 28.72, 96.73 3.26 M34.14 81.36 C54.83 57.44, 68.86 40.37, 102.37 2.87 M34.14 81.36 C49.13 66.07, 60.21 48.29, 102.37 2.87 M39.13 81.72 C58.29 66.15, 73.36 40.45, 107.36 3.23 M39.13 81.72 C66.97 51.26, 91.45 20.37, 107.36 3.23 M44.77 81.32 C57.93 62.93, 81.28 39.7, 113 2.83 M44.77 81.32 C71.96 51.49, 97.93 18, 113 2.83 M49.76 81.68 C62.05 62.45, 76.06 43.24, 117.99 3.19 M49.76 81.68 C72.88 54.63, 97.78 26.99, 117.99 3.19 M55.4 81.29 C69.4 64.44, 92.7 44.71, 123.63 2.8 M55.4 81.29 C70.29 60.67, 89.23 41.82, 123.63 2.8 M60.39 81.65 C82.52 56.77, 104.72 30.62, 128.62 3.16 M60.39 81.65 C84.32 59.21, 105.23 31.99, 128.62 3.16 M66.03 81.25 C77.98 67.91, 96.01 50.86, 133.61 3.52 M66.03 81.25 C87.59 55.93, 109.88 32, 133.61 3.52 M71.02 81.61 C84.42 63.62, 99.74 53.07, 139.25 3.12 M71.02 81.61 C84.77 63.78, 103.48 44.47, 139.25 3.12 M76.66 81.22 C102.34 48.34, 129.4 18.83, 144.24 3.48 M76.66 81.22 C100.08 59.95, 118 36.24, 144.24 3.48 M81.65 81.58 C98.5 64.58, 115.74 41.04, 149.88 3.09 M81.65 81.58 C101.96 57.66, 125.81 29.65, 149.88 3.09 M86.64 81.94 C103.78 60.45, 124.35 39.37, 154.87 3.45 M86.64 81.94 C107.66 60.59, 128.47 33.79, 154.87 3.45 M92.28 81.54 C108.19 62.01, 127.43 40.72, 160.51 3.05 M92.28 81.54 C116.83 52.44, 146.34 19.54, 160.51 3.05 M97.27 81.9 C116.6 61.31, 140.32 32.09, 165.5 3.41 M97.27 81.9 C114.27 65.84, 129.74 45.15, 165.5 3.41 M102.91 81.51 C123.64 52.05, 146.59 28.91, 170.48 3.77 M102.91 81.51 C127.27 51.47, 153.59 23.47, 170.48 3.77 M107.9 81.87 C124.42 56.76, 151.11 31.27, 176.13 3.38 M107.9 81.87 C124.72 66.16, 139.63 46.12, 176.13 3.38 M113.54 81.47 C142.49 53.88, 162.21 19.94, 181.11 3.74 M113.54 81.47 C141.19 52.45, 167.38 21.7, 181.11 3.74 M118.53 81.83 C139.86 61.25, 160.65 36.29, 186.76 3.34 M118.53 81.83 C138.16 56.5, 161.61 30.29, 186.76 3.34 M123.51 82.19 C138.83 61.85, 154.64 43.72, 191.74 3.7 M123.51 82.19 C139.3 62.56, 154.27 45.18, 191.74 3.7 M129.16 81.8 C150.28 52.43, 182.29 21.75, 197.39 3.31 M129.16 81.8 C149.28 57.05, 169.68 33.04, 197.39 3.31 M134.14 82.16 C156.03 59.71, 182.18 32.99, 202.37 3.67 M134.14 82.16 C159.44 53.82, 181.27 28.31, 202.37 3.67 M139.79 81.77 C160.93 56.23, 191.78 21.93, 208.02 3.28 M139.79 81.77 C165.31 48.66, 194.83 20.41, 208.02 3.28 M144.77 82.13 C156.57 68.86, 170.09 51.7, 213 3.64 M144.77 82.13 C160.08 64.34, 174.27 46.51, 213 3.64 M150.42 81.73 C176.36 54.4, 196.21 23.49, 217.99 4 M150.42 81.73 C175.19 53.36, 198.84 28.16, 217.99 4 M155.4 82.09 C182.58 53.82, 207.61 20.6, 223.64 3.6 M155.4 82.09 C168.6 67.69, 181.29 49.26, 223.64 3.6 M160.39 82.45 C178.67 55.44, 203.35 34.39, 228.62 3.96 M160.39 82.45 C177.21 63.78, 196.63 43.22, 228.62 3.96 M166.03 82.06 C181.32 60.35, 198.61 43.68, 234.92 2.81 M166.03 82.06 C184.19 60.3, 200.74 41.37, 234.92 2.81 M171.02 82.42 C189.14 62.84, 205.17 47.48, 238.6 4.68 M171.02 82.42 C197.18 51.79, 224.83 23.18, 238.6 4.68 M176.67 82.02 C199.59 61.14, 211.33 43.18, 241.61 7.31 M176.67 82.02 C189.76 65.39, 206.61 48.91, 241.61 7.31 M181.65 82.38 C200.48 66.45, 209.25 45.49, 244.63 9.93 M181.65 82.38 C200.13 63.9, 216.82 43.48, 244.63 9.93 M187.3 81.99 C210.63 59.73, 233.5 34.5, 245.03 15.57 M187.3 81.99 C197.04 66.74, 210.89 53.92, 245.03 15.57 M192.28 82.35 C206.4 60.02, 227.92 44.2, 244.77 21.97 M192.28 82.35 C211.14 56.29, 234.31 34.48, 244.77 21.97 M197.93 81.95 C215.72 62.14, 227.69 48.58, 244.51 28.37 M197.93 81.95 C209.29 66, 225.03 48.92, 244.51 28.37 M202.91 82.31 C219.55 64.29, 231.55 52.37, 244.9 34.01 M202.91 82.31 C211.52 70.27, 221.74 62.3, 244.9 34.01 M207.9 82.67 C219.88 73.82, 230.75 58.22, 244.64 40.41 M207.9 82.67 C217.88 69.58, 229.23 56.66, 244.64 40.41 M213.54 82.28 C224.01 68.3, 235.48 51.15, 244.38 46.81 M213.54 82.28 C219.87 71.98, 228.69 62.03, 244.38 46.81 M218.53 82.64 C226.08 77.24, 232.78 66.87, 244.12 53.2 M218.53 82.64 C226.34 76.43, 230.24 68.33, 244.12 53.2 M224.83 81.49 C235.07 72.56, 241.98 63.6, 243.85 59.6 M224.83 81.49 C227.17 76.09, 232.91 71.49, 243.85 59.6 M231.78 79.59 C235.1 73.66, 238.79 71.73, 244.25 65.25 M231.78 79.59 C235.07 75.06, 243.18 68.38, 244.25 65.25" stroke="#b2f2bb" stroke-width="0.5" fill="none"></path><path d="M20.25 0 M20.25 0 C71.78 -4.75, 130.57 -0.38, 224.75 0 M20.25 0 C99.44 -1.68, 177.69 -1.71, 224.75 0 M224.75 0 C236.75 1.52, 242.19 5.57, 245 20.25 M224.75 0 C242.32 0.37, 244.09 5.81, 245 20.25 M245 20.25 C246.44 29.73, 247.28 47.45, 245 60.75 M245 20.25 C246.25 34.28, 243.77 42.97, 245 60.75 M245 60.75 C244.58 72.84, 239.32 81.81, 224.75 81 M245 60.75 C245.6 74.19, 237.37 77.24, 224.75 81 M224.75 81 C171.71 84.03, 117.36 80.11, 20.25 81 M224.75 81 C161.54 80.32, 101.86 80.52, 20.25 81 M20.25 81 C2.76 82.58, -0.79 74.65, 0 60.75 M20.25 81 C7.58 85.46, -4.22 78.21, 0 60.75 M0 60.75 C-3.06 51.4, -4.07 38.04, 0 20.25 M0 60.75 C-2.14 53.98, -2.31 45.04, 0 20.25 M0 20.25 C-1.85 7.83, 5.23 -2.64, 20.25 0 M0 20.25 C-0.99 6.1, 8.2 0.65, 20.25 0" stroke="#2f9e44" stroke-width="1" fill="none"></path></g><g transform="translate(647.0598831176758 89.08333333333337) rotate(0 59.44011688232422 10)"><text x="59.44011688232422" y="0" font-family="Virgil, Segoe UI Emoji" font-size="16px" fill="#2f9e44" text-anchor="middle" style="white-space: pre;" direction="ltr" dominant-baseline="text-before-edge">Local Git Repo</text></g><g stroke-linecap="round"><g transform="translate(180.11994626169832 105.11725632300931) rotate(0 48.10669353581753 -0.2669614948379717)"><path d="M0 0 C16.04 -0.09, 80.18 -0.44, 96.21 -0.53 M0 0 C16.04 -0.09, 80.18 -0.44, 96.21 -0.53" stroke="#1971c2" stroke-width="4" fill="none"></path></g><g transform="translate(180.11994626169832 105.11725632300931) rotate(0 48.10669353581753 -0.2669614948379717)"><path d="M68.08 9.88 C76.67 6.7, 85.26 3.52, 96.21 -0.53 M68.08 9.88 C76.78 6.66, 85.49 3.44, 96.21 -0.53" stroke="#1971c2" stroke-width="4" fill="none"></path></g><g transform="translate(180.11994626169832 105.11725632300931) rotate(0 48.10669353581753 -0.2669614948379717)"><path d="M67.97 -10.64 C76.59 -7.55, 85.22 -4.47, 96.21 -0.53 M67.97 -10.64 C76.71 -7.51, 85.45 -4.39, 96.21 -0.53" stroke="#1971c2" stroke-width="4" fill="none"></path></g></g><mask></mask><g stroke-linecap="round"><g transform="translate(460.7145191196746 103.7525206438834) rotate(0 56.55940710682938 -0.2862838431168342)"><path d="M0 0 C18.85 -0.1, 94.27 -0.48, 113.12 -0.57 M0 0 C18.85 -0.1, 94.27 -0.48, 113.12 -0.57" stroke="#1971c2" stroke-width="4" fill="none"></path></g><g transform="translate(460.7145191196746 103.7525206438834) rotate(0 56.55940710682938 -0.2862838431168342)"><path d="M84.98 9.83 C95.77 5.84, 106.57 1.85, 113.12 -0.57 M84.98 9.83 C95 6.13, 105.03 2.42, 113.12 -0.57" stroke="#1971c2" stroke-width="4" fill="none"></path></g><g transform="translate(460.7145191196746 103.7525206438834) rotate(0 56.55940710682938 -0.2862838431168342)"><path d="M84.88 -10.69 C95.71 -6.81, 106.54 -2.93, 113.12 -0.57 M84.88 -10.69 C94.94 -7.09, 105 -3.48, 113.12 -0.57" stroke="#1971c2" stroke-width="4" fill="none"></path></g></g><mask></mask><g stroke-linecap="round"><g transform="translate(845.25 89.83333333333337) rotate(0 52.5 -0.5)"><path d="M0 0 C17.5 -0.17, 87.5 -0.83, 105 -1 M0 0 C17.5 -0.17, 87.5 -0.83, 105 -1" stroke="#1971c2" stroke-width="4" fill="none"></path></g><g transform="translate(845.25 89.83333333333337) rotate(0 52.5 -0.5)"><path d="M76.91 9.53 C87.06 5.72, 97.21 1.92, 105 -1 M76.91 9.53 C87.51 5.56, 98.11 1.58, 105 -1" stroke="#1971c2" stroke-width="4" fill="none"></path></g><g transform="translate(845.25 89.83333333333337) rotate(0 52.5 -0.5)"><path d="M76.71 -10.99 C86.93 -7.38, 97.15 -3.77, 105 -1 M76.71 -10.99 C87.39 -7.22, 98.06 -3.45, 105 -1" stroke="#1971c2" stroke-width="4" fill="none"></path></g></g><mask></mask><g stroke-linecap="round"><g transform="translate(955.25 111.83333333333337) rotate(0 -55.5 -1)"><path d="M0 0 C-18.5 -0.33, -92.5 -1.67, -111 -2 M0 0 C-18.5 -0.33, -92.5 -1.67, -111 -2" stroke="#1971c2" stroke-width="4" fill="none"></path></g><g transform="translate(955.25 111.83333333333337) rotate(0 -55.5 -1)"><path d="M-82.63 -11.75 C-90.08 -9.19, -97.53 -6.63, -111 -2 M-82.63 -11.75 C-89.56 -9.37, -96.5 -6.98, -111 -2" stroke="#1971c2" stroke-width="4" fill="none"></path></g><g transform="translate(955.25 111.83333333333337) rotate(0 -55.5 -1)"><path d="M-83 8.77 C-90.35 5.94, -97.7 3.11, -111 -2 M-83 8.77 C-89.84 6.13, -96.69 3.5, -111 -2" stroke="#1971c2" stroke-width="4" fill="none"></path></g></g><mask></mask><g transform="translate(875.25 114.83333333333337) rotate(0 38.04008483886719 10)"><text x="0" y="0" font-family="Virgil, Segoe UI Emoji" font-size="16px" fill="#1971c2" text-anchor="start" style="white-space: pre;" direction="ltr" dominant-baseline="text-before-edge">Git Fetch</text></g><g transform="translate(847.25 64.83333333333337) rotate(0 34.712074279785156 10)"><text x="0" y="0" font-family="Virgil, Segoe UI Emoji" font-size="16px" fill="#1971c2" text-anchor="start" style="white-space: pre;" direction="ltr" dominant-baseline="text-before-edge">Git Push</text></g><g transform="translate(182.33333333333337 80.58333333333337) rotate(0 30.936065673828125 10)"><text x="0" y="0" font-family="Virgil, Segoe UI Emoji" font-size="16px" fill="#1971c2" text-anchor="start" style="white-space: pre;" direction="ltr" dominant-baseline="text-before-edge">Git Add</text></g><g transform="translate(455.33333333333337 80.58333333333337) rotate(0 42.568092346191406 10)"><text x="0" y="0" font-family="Virgil, Segoe UI Emoji" font-size="16px" fill="#1971c2" text-anchor="start" style="white-space: pre;" direction="ltr" dominant-baseline="text-before-edge">Git Commit</text></g></svg>