<svg version="1.1" xmlns="http://www.w3.org/2000/svg" viewBox="0 0 1198 149.58333333333337" width="3594" height="448.7500000000001">
  <!-- svg-source:excalidraw -->
  
  <defs>
    <style class="style-fonts">
      @font-face {
        font-family: "Virgil";
        src: url("https://excalidraw.com/Virgil.woff2");
      }
      @font-face {
        font-family: "Cascadia";
        src: url("https://excalidraw.com/Cascadia.woff2");
      }
    </style>
    
  </defs>
  <g stroke-linecap="round" transform="translate(10 10.583333333333371) rotate(0 406.5 18)"><path d="M9 0 M9 0 C187.37 5.61, 365.76 6.13, 804 0 M9 0 C303.95 -4.28, 598.95 -5.29, 804 0 M804 0 C811.11 -1.18, 809.97 0.55, 813 9 M804 0 C812.83 -3.41, 808.71 0.47, 813 9 M813 9 C810.12 15.31, 814 23.61, 813 27 M813 9 C811.58 15.12, 811.98 21.42, 813 27 M813 27 C815.94 29.04, 812.24 35.06, 804 36 M813 27 C816.34 36.95, 808.62 31.73, 804 36 M804 36 C599.71 36.36, 394.35 36.16, 9 36 M804 36 C495.1 30.61, 186.74 29.68, 9 36 M9 36 C1.21 33.49, -2.86 30.81, 0 27 M9 36 C-1.54 34.97, -0.96 30.7, 0 27 M0 27 C0.97 24.63, -2.26 21.1, 0 9 M0 27 C-1.04 22, 0.51 16.19, 0 9 M0 9 C0.18 2.55, 1.73 1.68, 9 0 M0 9 C1.33 6.55, -0.29 -3.75, 9 0" stroke="#e03131" stroke-width="1" fill="none"></path></g><g transform="translate(373.5639114379883 18.58333333333337) rotate(0 42.93608856201172 10)"><text x="42.93608856201172" y="0" font-family="Virgil, Segoe UI Emoji" font-size="16px" fill="#e03131" text-anchor="middle" style="white-space: pre;" direction="ltr" dominant-baseline="text-before-edge">Local(Disk)</text></g><g stroke-linecap="round" transform="translate(972.5 10) rotate(0 106.5 18.5)"><path d="M9.25 0 M9.25 0 C63.48 2.1, 116.87 0.62, 203.75 0 M9.25 0 C80.8 -5.24, 148.77 -2.47, 203.75 0 M203.75 0 C208.71 -2.78, 211.21 0.57, 213 9.25 M203.75 0 C206.63 -2.52, 208.46 2.06, 213 9.25 M213 9.25 C209.74 16.56, 213.5 22.03, 213 27.75 M213 9.25 C212.99 11.9, 212.23 18.14, 213 27.75 M213 27.75 C213.97 33.95, 210.1 36.55, 203.75 37 M213 27.75 C211.54 35.85, 211.24 40.55, 203.75 37 M203.75 37 C161.11 37.47, 116.37 33.23, 9.25 37 M203.75 37 C158.65 36.74, 116.47 39.47, 9.25 37 M9.25 37 C1.25 34.34, 2.56 30.52, 0 27.75 M9.25 37 C1.51 37.52, 2.45 29.5, 0 27.75 M0 27.75 C-1.53 23.46, -3.74 20.64, 0 9.25 M0 27.75 C-0.05 22.97, 0.97 18.47, 0 9.25 M0 9.25 C-1.78 -0.39, 1.93 -0.33, 9.25 0 M0 9.25 C2.76 -1.05, 1.9 4, 9.25 0" stroke="#e03131" stroke-width="1" fill="none"></path></g><g transform="translate(1023.9999008178711 18.5) rotate(0 55.000099182128906 10)"><text x="55.000099182128906" y="0" font-family="Virgil, Segoe UI Emoji" font-size="16px" fill="#e03131" text-anchor="middle" style="white-space: pre;" direction="ltr" dominant-baseline="text-before-edge">Remote(Cloud)</text></g><g stroke-linecap="round" transform="translate(971 58.25) rotate(0 108.5 40.5)"><path d="M20.25 0 M20.25 0 C58.25 -2.36, 97.38 -1.95, 196.75 0 M20.25 0 C72.53 0.38, 125.05 -2.69, 196.75 0 M196.75 0 C213.13 -2.42, 219.48 9.54, 217 20.25 M196.75 0 C212.22 -0.9, 213.2 10.43, 217 20.25 M217 20.25 C219.63 28.09, 213.76 43.99, 217 60.75 M217 20.25 C216.93 37.01, 219.34 49.66, 217 60.75 M217 60.75 C214.94 71.84, 212.5 84.64, 196.75 81 M217 60.75 C217.46 70.55, 205.89 84.95, 196.75 81 M196.75 81 C135.19 74.43, 81.11 77.06, 20.25 81 M196.75 81 C136.41 78.31, 75.13 81.66, 20.25 81 M20.25 81 C10.25 78.04, -0.46 71.61, 0 60.75 M20.25 81 C2.17 78.89, -0.45 77.55, 0 60.75 M0 60.75 C-0.77 47.27, -1.86 40.79, 0 20.25 M0 60.75 C-1.16 48.33, 0.31 38.27, 0 20.25 M0 20.25 C2.45 5.19, 8.28 1.47, 20.25 0 M0 20.25 C2.79 10.83, 4.19 4.53, 20.25 0" stroke="#f08c00" stroke-width="1" fill="none"></path></g><g transform="translate(1034.7239074707031 78.75) rotate(0 44.776092529296875 20)"><text x="44.776092529296875" y="0" font-family="Virgil, Segoe UI Emoji" font-size="16px" fill="#f08c00" text-anchor="middle" style="white-space: pre;" direction="ltr" dominant-baseline="text-before-edge">Remote Git</text><text x="44.776092529296875" y="20" font-family="Virgil, Segoe UI Emoji" font-size="16px" fill="#f08c00" text-anchor="middle" style="white-space: pre;" direction="ltr" dominant-baseline="text-before-edge">Repo</text></g><g stroke-linecap="round" transform="translate(10.333333333333371 67.58333333333337) rotate(0 80.5 32.5)"><path d="M16.25 0 M16.25 0 C54.89 4.59, 101.84 0.13, 144.75 0 M16.25 0 C57.67 1.09, 96.98 -1.68, 144.75 0 M144.75 0 C159.34 1.04, 163.34 5.37, 161 16.25 M144.75 0 C159.65 1.49, 159.71 4.23, 161 16.25 M161 16.25 C163.64 30.62, 157.39 44.33, 161 48.75 M161 16.25 C161.87 26.36, 161.47 34.23, 161 48.75 M161 48.75 C160.4 57.18, 154.5 61.54, 144.75 65 M161 48.75 C162.11 57.13, 152.07 68.25, 144.75 65 M144.75 65 C108.7 62.09, 78.2 69.68, 16.25 65 M144.75 65 C95.78 61.66, 46.82 62.77, 16.25 65 M16.25 65 C5.36 65.12, 2.82 60.43, 0 48.75 M16.25 65 C6.52 65.24, 0.56 57.18, 0 48.75 M0 48.75 C0.82 45.16, -1.17 34.72, 0 16.25 M0 48.75 C2.12 39.54, 1.85 27.77, 0 16.25 M0 16.25 C1.89 4.31, 6.77 -1.9, 16.25 0 M0 16.25 C-3.21 4.09, 2.18 2.75, 16.25 0" stroke="#2f9e44" stroke-width="1" fill="none"></path></g><g transform="translate(19.185178120931027 90.08333333333337) rotate(0 71.64815521240234 10)"><text x="71.64815521240234" y="0" font-family="Virgil, Segoe UI Emoji" font-size="16px" fill="#2f9e44" text-anchor="middle" style="white-space: pre;" direction="ltr" dominant-baseline="text-before-edge">Working Repository</text></g><g stroke-linecap="round" transform="translate(286.33333333333337 67.58333333333337) rotate(0 79 31.5)"><path d="M15.75 0 M15.75 0 C63.98 0.61, 105.15 1.41, 142.25 0 M15.75 0 C63.34 -1.47, 107.19 -1.72, 142.25 0 M142.25 0 C149.29 0.96, 155.87 2.2, 158 15.75 M142.25 0 C156 -1.21, 157.47 7.11, 158 15.75 M158 15.75 C161.02 27.57, 159.38 31.01, 158 47.25 M158 15.75 C156.62 24.23, 157.46 34.18, 158 47.25 M158 47.25 C158.85 58.71, 152.96 63.48, 142.25 63 M158 47.25 C155.59 54.11, 150.32 59.13, 142.25 63 M142.25 63 C103.12 63.39, 61.65 61.3, 15.75 63 M142.25 63 C93.37 65.94, 42.52 65.68, 15.75 63 M15.75 63 C3.35 60.21, -1.16 54.93, 0 47.25 M15.75 63 C8 66.39, 4.22 62.33, 0 47.25 M0 47.25 C0.23 36.99, 2.3 26.95, 0 15.75 M0 47.25 C1.15 41.81, -0.3 32.54, 0 15.75 M0 15.75 C2.45 2.15, 4.59 -3.88, 15.75 0 M0 15.75 C-0.38 5.1, 5.74 3.89, 15.75 0" stroke="#2f9e44" stroke-width="1" fill="none"></path></g><g transform="translate(314.70921071370446 89.08333333333337) rotate(0 50.624122619628906 10)"><text x="50.624122619628906" y="0" font-family="Virgil, Segoe UI Emoji" font-size="16px" fill="#2f9e44" text-anchor="middle" style="white-space: pre;" direction="ltr" dominant-baseline="text-before-edge">Staging Area</text></g><g stroke-linecap="round" transform="translate(584 58.58333333333337) rotate(0 122.5 40.5)"><path d="M20.25 0 M20.25 0 C96.21 -0.44, 169.92 -3.71, 224.75 0 M20.25 0 C72.4 -1.11, 121.51 0.17, 224.75 0 M224.75 0 C236.56 -0.74, 248.68 10.01, 245 20.25 M224.75 0 C241.88 1.63, 247.18 5.47, 245 20.25 M245 20.25 C243.46 30.96, 247.01 50.24, 245 60.75 M245 20.25 C245.54 36.04, 245.88 52.88, 245 60.75 M245 60.75 C247.21 78.06, 235.41 79.76, 224.75 81 M245 60.75 C246.94 76.45, 242.33 79.87, 224.75 81 M224.75 81 C165.64 74.7, 107.42 78.06, 20.25 81 M224.75 81 C159.5 83.88, 97.66 83.8, 20.25 81 M20.25 81 C5.36 84.42, -0.24 77.02, 0 60.75 M20.25 81 C3.3 79.17, -0.5 78.6, 0 60.75 M0 60.75 C-1.55 48.66, -1.6 29.94, 0 20.25 M0 60.75 C-0.74 47, 0.46 33.35, 0 20.25 M0 20.25 C-0.24 4.01, 6.01 -3.34, 20.25 0 M0 20.25 C0.01 3.09, 10.91 2.34, 20.25 0" stroke="#2f9e44" stroke-width="1" fill="none"></path></g><g transform="translate(647.0598831176758 89.08333333333337) rotate(0 59.44011688232422 10)"><text x="59.44011688232422" y="0" font-family="Virgil, Segoe UI Emoji" font-size="16px" fill="#2f9e44" text-anchor="middle" style="white-space: pre;" direction="ltr" dominant-baseline="text-before-edge">Local Git Repo</text></g><g stroke-linecap="round"><g transform="translate(180.11994626169832 105.11725632300931) rotate(0 48.10669353581753 -0.2669614948379717)"><path d="M0 0 C16.04 -0.09, 80.18 -0.44, 96.21 -0.53 M0 0 C16.04 -0.09, 80.18 -0.44, 96.21 -0.53" stroke="#1971c2" stroke-width="4" fill="none"></path></g><g transform="translate(180.11994626169832 105.11725632300931) rotate(0 48.10669353581753 -0.2669614948379717)"><path d="M68.08 9.88 C76.67 6.7, 85.26 3.52, 96.21 -0.53 M68.08 9.88 C76.78 6.66, 85.49 3.44, 96.21 -0.53" stroke="#1971c2" stroke-width="4" fill="none"></path></g><g transform="translate(180.11994626169832 105.11725632300931) rotate(0 48.10669353581753 -0.2669614948379717)"><path d="M67.97 -10.64 C76.59 -7.55, 85.22 -4.47, 96.21 -0.53 M67.97 -10.64 C76.71 -7.51, 85.45 -4.39, 96.21 -0.53" stroke="#1971c2" stroke-width="4" fill="none"></path></g></g><mask></mask><g stroke-linecap="round"><g transform="translate(460.7145191196746 103.7525206438834) rotate(0 56.55940710682938 -0.2862838431168342)"><path d="M0 0 C18.85 -0.1, 94.27 -0.48, 113.12 -0.57 M0 0 C18.85 -0.1, 94.27 -0.48, 113.12 -0.57" stroke="#1971c2" stroke-width="4" fill="none"></path></g><g transform="translate(460.7145191196746 103.7525206438834) rotate(0 56.55940710682938 -0.2862838431168342)"><path d="M84.98 9.83 C95.77 5.84, 106.57 1.85, 113.12 -0.57 M84.98 9.83 C95 6.13, 105.03 2.42, 113.12 -0.57" stroke="#1971c2" stroke-width="4" fill="none"></path></g><g transform="translate(460.7145191196746 103.7525206438834) rotate(0 56.55940710682938 -0.2862838431168342)"><path d="M84.88 -10.69 C95.71 -6.81, 106.54 -2.93, 113.12 -0.57 M84.88 -10.69 C94.94 -7.09, 105 -3.48, 113.12 -0.57" stroke="#1971c2" stroke-width="4" fill="none"></path></g></g><mask></mask><g stroke-linecap="round"><g transform="translate(845.25 89.83333333333337) rotate(0 52.5 -0.5)"><path d="M0 0 C17.5 -0.17, 87.5 -0.83, 105 -1 M0 0 C17.5 -0.17, 87.5 -0.83, 105 -1" stroke="#1971c2" stroke-width="4" fill="none"></path></g><g transform="translate(845.25 89.83333333333337) rotate(0 52.5 -0.5)"><path d="M76.91 9.53 C87.06 5.72, 97.21 1.92, 105 -1 M76.91 9.53 C87.51 5.56, 98.11 1.58, 105 -1" stroke="#1971c2" stroke-width="4" fill="none"></path></g><g transform="translate(845.25 89.83333333333337) rotate(0 52.5 -0.5)"><path d="M76.71 -10.99 C86.93 -7.38, 97.15 -3.77, 105 -1 M76.71 -10.99 C87.39 -7.22, 98.06 -3.45, 105 -1" stroke="#1971c2" stroke-width="4" fill="none"></path></g></g><mask></mask><g stroke-linecap="round"><g transform="translate(955.25 111.83333333333337) rotate(0 -55.5 -1)"><path d="M0 0 C-18.5 -0.33, -92.5 -1.67, -111 -2 M0 0 C-18.5 -0.33, -92.5 -1.67, -111 -2" stroke="#1971c2" stroke-width="4" fill="none"></path></g><g transform="translate(955.25 111.83333333333337) rotate(0 -55.5 -1)"><path d="M-82.63 -11.75 C-90.08 -9.19, -97.53 -6.63, -111 -2 M-82.63 -11.75 C-89.56 -9.37, -96.5 -6.98, -111 -2" stroke="#1971c2" stroke-width="4" fill="none"></path></g><g transform="translate(955.25 111.83333333333337) rotate(0 -55.5 -1)"><path d="M-83 8.77 C-90.35 5.94, -97.7 3.11, -111 -2 M-83 8.77 C-89.84 6.13, -96.69 3.5, -111 -2" stroke="#1971c2" stroke-width="4" fill="none"></path></g></g><mask></mask><g transform="translate(875.25 114.83333333333337) rotate(0 38.04008483886719 10)"><text x="0" y="0" font-family="Virgil, Segoe UI Emoji" font-size="16px" fill="#1971c2" text-anchor="start" style="white-space: pre;" direction="ltr" dominant-baseline="text-before-edge">Git Fetch</text></g><g transform="translate(847.25 64.83333333333337) rotate(0 34.712074279785156 10)"><text x="0" y="0" font-family="Virgil, Segoe UI Emoji" font-size="16px" fill="#1971c2" text-anchor="start" style="white-space: pre;" direction="ltr" dominant-baseline="text-before-edge">Git Push</text></g><g transform="translate(182.33333333333337 80.58333333333337) rotate(0 30.936065673828125 10)"><text x="0" y="0" font-family="Virgil, Segoe UI Emoji" font-size="16px" fill="#1971c2" text-anchor="start" style="white-space: pre;" direction="ltr" dominant-baseline="text-before-edge">Git Add</text></g><g transform="translate(455.33333333333337 80.58333333333337) rotate(0 42.568092346191406 10)"><text x="0" y="0" font-family="Virgil, Segoe UI Emoji" font-size="16px" fill="#1971c2" text-anchor="start" style="white-space: pre;" direction="ltr" dominant-baseline="text-before-edge">Git Commit</text></g></svg>